%TF.GenerationSoftware,KiCad,Pcbnew,9.0.1*%
%TF.CreationDate,2026-01-25T22:44:51-05:00*%
%TF.ProjectId,BREAD_Slice,42524541-445f-4536-9c69-63652e6b6963,rev?*%
%TF.SameCoordinates,PX74eba40PY8552dc0*%
%TF.FileFunction,Copper,L1,Top*%
%TF.FilePolarity,Positive*%
%FSLAX46Y46*%
G04 Gerber Fmt 4.6, Leading zero omitted, Abs format (unit mm)*
G04 Created by KiCad (PCBNEW 9.0.1) date 2026-01-25 22:44:51*
%MOMM*%
%LPD*%
G01*
G04 APERTURE LIST*
G04 Aperture macros list*
%AMRoundRect*
0 Rectangle with rounded corners*
0 $1 Rounding radius*
0 $2 $3 $4 $5 $6 $7 $8 $9 X,Y pos of 4 corners*
0 Add a 4 corners polygon primitive as box body*
4,1,4,$2,$3,$4,$5,$6,$7,$8,$9,$2,$3,0*
0 Add four circle primitives for the rounded corners*
1,1,$1+$1,$2,$3*
1,1,$1+$1,$4,$5*
1,1,$1+$1,$6,$7*
1,1,$1+$1,$8,$9*
0 Add four rect primitives between the rounded corners*
20,1,$1+$1,$2,$3,$4,$5,0*
20,1,$1+$1,$4,$5,$6,$7,0*
20,1,$1+$1,$6,$7,$8,$9,0*
20,1,$1+$1,$8,$9,$2,$3,0*%
G04 Aperture macros list end*
%TA.AperFunction,SMDPad,CuDef*%
%ADD10R,1.651000X1.000000*%
%TD*%
%TA.AperFunction,SMDPad,CuDef*%
%ADD11RoundRect,1.000000X-5.000000X-5.000000X5.000000X-5.000000X5.000000X5.000000X-5.000000X5.000000X0*%
%TD*%
%TA.AperFunction,ComponentPad*%
%ADD12R,1.600000X1.600000*%
%TD*%
%TA.AperFunction,ComponentPad*%
%ADD13O,1.600000X1.600000*%
%TD*%
%TA.AperFunction,ComponentPad*%
%ADD14R,1.700000X1.700000*%
%TD*%
%TA.AperFunction,ComponentPad*%
%ADD15C,1.700000*%
%TD*%
%TA.AperFunction,SMDPad,CuDef*%
%ADD16RoundRect,0.250000X0.300000X0.300000X-0.300000X0.300000X-0.300000X-0.300000X0.300000X-0.300000X0*%
%TD*%
%TA.AperFunction,SMDPad,CuDef*%
%ADD17RoundRect,0.250000X-0.550000X1.500000X-0.550000X-1.500000X0.550000X-1.500000X0.550000X1.500000X0*%
%TD*%
%TA.AperFunction,SMDPad,CuDef*%
%ADD18RoundRect,0.250000X0.970000X0.310000X-0.970000X0.310000X-0.970000X-0.310000X0.970000X-0.310000X0*%
%TD*%
%TA.AperFunction,ViaPad*%
%ADD19C,1.750000*%
%TD*%
%TA.AperFunction,ViaPad*%
%ADD20C,0.800000*%
%TD*%
%TA.AperFunction,ViaPad*%
%ADD21C,1.600000*%
%TD*%
%TA.AperFunction,Conductor*%
%ADD22C,1.000000*%
%TD*%
%TA.AperFunction,Conductor*%
%ADD23C,0.500000*%
%TD*%
%TA.AperFunction,Conductor*%
%ADD24C,1.500000*%
%TD*%
G04 APERTURE END LIST*
D10*
%TO.P,D2,1,VDD*%
%TO.N,+5V*%
X47923000Y5667231D03*
%TO.P,D2,2,DOUT*%
%TO.N,unconnected-(D2-DOUT-Pad2)*%
X47923000Y2467231D03*
%TO.P,D2,3,VSS*%
%TO.N,GND*%
X53077000Y2467231D03*
%TO.P,D2,4,DIN*%
%TO.N,/slice_template/LED*%
X53077000Y5667231D03*
%TD*%
D11*
%TO.P,HS1,1*%
%TO.N,GND*%
X9200000Y18350000D03*
%TD*%
D12*
%TO.P,A1,1,D1/TX*%
%TO.N,unconnected-(A1-D1{slash}TX-Pad1)*%
X20010000Y42360000D03*
D13*
%TO.P,A1,2,D0/RX*%
%TO.N,unconnected-(A1-D0{slash}RX-Pad2)*%
X20010000Y39820000D03*
%TO.P,A1,3,~{RESET}*%
%TO.N,unconnected-(A1-~{RESET}-Pad3)*%
X20010000Y37280000D03*
%TO.P,A1,4,GND*%
%TO.N,GND*%
X20010000Y34740000D03*
%TO.P,A1,5,D2*%
%TO.N,/slice_template/ESTOP*%
X20010000Y32200000D03*
%TO.P,A1,6,D3*%
%TO.N,/slice_template/SYNC{slash}CAN_{INT}*%
X20010000Y29660000D03*
%TO.P,A1,7,D4*%
%TO.N,/slice_template/INT{slash}CAN_{CS}*%
X20010000Y27120000D03*
%TO.P,A1,8,D5*%
%TO.N,/slice_template/LED*%
X20010000Y24580000D03*
%TO.P,A1,9,D6*%
%TO.N,/slice_template/D6*%
X20010000Y22040000D03*
%TO.P,A1,10,D7*%
%TO.N,/slice_template/D7*%
X20010000Y19500000D03*
%TO.P,A1,11,D8*%
%TO.N,/slice_template/D8*%
X20010000Y16960000D03*
%TO.P,A1,12,D9*%
%TO.N,/slice_template/D9*%
X20010000Y14420000D03*
%TO.P,A1,13,D10*%
%TO.N,/slice_template/D10*%
X20010000Y11880000D03*
%TO.P,A1,14,D11*%
%TO.N,/slice_template/D11{slash}MOSI*%
X20010000Y9340000D03*
%TO.P,A1,15,D12*%
%TO.N,/slice_template/D12{slash}MISO*%
X20010000Y6800000D03*
%TO.P,A1,16,D13*%
%TO.N,/slice_template/D13{slash}SCK*%
X35250000Y6800000D03*
%TO.P,A1,17,3V3*%
%TO.N,+3.3V*%
X35250000Y9340000D03*
%TO.P,A1,18,AREF*%
%TO.N,/slice_template/AREF*%
X35250000Y11880000D03*
%TO.P,A1,19,A0*%
%TO.N,/slice_template/A0*%
X35250000Y14420000D03*
%TO.P,A1,20,A1*%
%TO.N,/slice_template/A1*%
X35250000Y16960000D03*
%TO.P,A1,21,A2*%
%TO.N,/slice_template/A2*%
X35250000Y19500000D03*
%TO.P,A1,22,A3*%
%TO.N,/slice_template/A3*%
X35250000Y22040000D03*
%TO.P,A1,23,A4*%
%TO.N,/slice_template/I2C_DAT{slash}A4*%
X35250000Y24580000D03*
%TO.P,A1,24,A5*%
%TO.N,/slice_template/I2C_CLK{slash}A5*%
X35250000Y27120000D03*
%TO.P,A1,25,A6*%
%TO.N,/slice_template/A6*%
X35250000Y29660000D03*
%TO.P,A1,26,A7*%
%TO.N,/slice_template/A7*%
X35250000Y32200000D03*
%TO.P,A1,27,+5V*%
%TO.N,+5V*%
X35250000Y34740000D03*
%TO.P,A1,28,~{RESET}*%
%TO.N,/slice_template/~{RESET}*%
X35250000Y37280000D03*
%TO.P,A1,29,GND*%
%TO.N,GND*%
X35250000Y39820000D03*
%TO.P,A1,30,VIN*%
%TO.N,/slice_template/VIN*%
X35250000Y42360000D03*
%TD*%
D14*
%TO.P,J7,1,Pin_1*%
%TO.N,+5V*%
X45620000Y55440000D03*
D15*
%TO.P,J7,2,Pin_2*%
X45620000Y52900000D03*
%TO.P,J7,3,Pin_3*%
X45620000Y50360000D03*
%TO.P,J7,4,Pin_4*%
X45620000Y47820000D03*
%TO.P,J7,5,Pin_5*%
X45620000Y45280000D03*
%TO.P,J7,6,Pin_6*%
X45620000Y42740000D03*
%TO.P,J7,7,Pin_7*%
X45620000Y40200000D03*
%TO.P,J7,8,Pin_8*%
X45620000Y37660000D03*
%TD*%
D16*
%TO.P,D1,1,K*%
%TO.N,/slice_template/VIN*%
X10350000Y58900000D03*
%TO.P,D1,2,A*%
%TO.N,+12V*%
X7550000Y58900000D03*
%TD*%
D17*
%TO.P,C5,1*%
%TO.N,/slice_template/VIN*%
X14900000Y58925000D03*
%TO.P,C5,2*%
%TO.N,GND*%
X14900000Y53525000D03*
%TD*%
D14*
%TO.P,J1,1,Pin_1*%
%TO.N,/slice_template/AREF*%
X42070000Y8750000D03*
D15*
%TO.P,J1,2,Pin_2*%
%TO.N,GND*%
X42070000Y6210000D03*
%TD*%
D14*
%TO.P,J6,1,Pin_1*%
%TO.N,+12V*%
X23830000Y51930000D03*
D15*
%TO.P,J6,2,Pin_2*%
X26370000Y51930000D03*
%TO.P,J6,3,Pin_3*%
X28910000Y51930000D03*
%TO.P,J6,4,Pin_4*%
X31450000Y51930000D03*
%TO.P,J6,5,Pin_5*%
X33990000Y51930000D03*
%TO.P,J6,6,Pin_6*%
X36530000Y51930000D03*
%TD*%
D14*
%TO.P,J2,1,Pin_1*%
%TO.N,/slice_template/~{RESET}*%
X46660000Y33900000D03*
D15*
%TO.P,J2,2,Pin_2*%
%TO.N,GND*%
X49200000Y33900000D03*
%TD*%
D14*
%TO.P,J4,1,Pin_1*%
%TO.N,/slice_template/D6*%
X42080000Y55440000D03*
D15*
%TO.P,J4,2,Pin_2*%
%TO.N,/slice_template/D7*%
X42080000Y52900000D03*
%TO.P,J4,3,Pin_3*%
%TO.N,/slice_template/D8*%
X42080000Y50360000D03*
%TO.P,J4,4,Pin_4*%
%TO.N,/slice_template/D9*%
X42080000Y47820000D03*
%TO.P,J4,5,Pin_5*%
%TO.N,/slice_template/D10*%
X42080000Y45280000D03*
%TO.P,J4,6,Pin_6*%
%TO.N,/slice_template/D11{slash}MOSI*%
X42080000Y42740000D03*
%TO.P,J4,7,Pin_7*%
%TO.N,/slice_template/D12{slash}MISO*%
X42080000Y40200000D03*
%TO.P,J4,8,Pin_8*%
%TO.N,/slice_template/D13{slash}SCK*%
X42080000Y37660000D03*
%TD*%
D14*
%TO.P,J10,1,Pin_1*%
%TO.N,GND*%
X49160000Y55440000D03*
D15*
%TO.P,J10,2,Pin_2*%
X49160000Y52900000D03*
%TO.P,J10,3,Pin_3*%
X49160000Y50360000D03*
%TO.P,J10,4,Pin_4*%
X49160000Y47820000D03*
%TO.P,J10,5,Pin_5*%
X49160000Y45280000D03*
%TO.P,J10,6,Pin_6*%
X49160000Y42740000D03*
%TO.P,J10,7,Pin_7*%
X49160000Y40200000D03*
%TO.P,J10,8,Pin_8*%
X49160000Y37660000D03*
%TD*%
D14*
%TO.P,J3,1,Pin_1*%
%TO.N,+3.3V*%
X51700000Y8710000D03*
D15*
%TO.P,J3,2,Pin_2*%
%TO.N,GND*%
X49160000Y8710000D03*
%TD*%
D14*
%TO.P,J12,1,Pin_1*%
%TO.N,GNDPWR*%
X3600000Y61450000D03*
D15*
%TO.P,J12,2,Pin_2*%
%TO.N,+12V*%
X3600000Y58910000D03*
%TO.P,J12,3,Pin_3*%
%TO.N,/slice_template/I2C_CLK*%
X3600000Y56370000D03*
%TO.P,J12,4,Pin_4*%
%TO.N,/slice_template/I2C_DAT*%
X3600000Y53830000D03*
%TO.P,J12,5,Pin_5*%
%TO.N,GNDPWR*%
X3600000Y51290000D03*
%TO.P,J12,6,Pin_6*%
%TO.N,/slice_template/ESTOP*%
X3600000Y48750000D03*
%TO.P,J12,7,Pin_7*%
%TO.N,/slice_template/SYNC*%
X3600000Y46210000D03*
%TO.P,J12,8,Pin_8*%
%TO.N,/slice_template/INT*%
X3600000Y43670000D03*
%TO.P,J12,9,Pin_9*%
%TO.N,+12V*%
X3600000Y41130000D03*
%TO.P,J12,10,Pin_10*%
%TO.N,GNDPWR*%
X3600000Y38590000D03*
%TD*%
D14*
%TO.P,J8,1,Pin_1*%
%TO.N,+5V*%
X45610000Y12310000D03*
D15*
%TO.P,J8,2,Pin_2*%
X45610000Y14850000D03*
%TO.P,J8,3,Pin_3*%
X45610000Y17390000D03*
%TO.P,J8,4,Pin_4*%
X45610000Y19930000D03*
%TO.P,J8,5,Pin_5*%
X45610000Y22470000D03*
%TO.P,J8,6,Pin_6*%
X45610000Y25010000D03*
%TO.P,J8,7,Pin_7*%
X45610000Y27550000D03*
%TO.P,J8,8,Pin_8*%
X45610000Y30090000D03*
%TD*%
D18*
%TO.P,SW1,1*%
%TO.N,/slice_template/INT{slash}CAN_{CS}*%
X16810000Y40505000D03*
%TO.P,SW1,2*%
%TO.N,/slice_template/SYNC{slash}CAN_{INT}*%
X16810000Y43045000D03*
%TO.P,SW1,3*%
%TO.N,/slice_template/I2C_DAT{slash}A4*%
X16810000Y45585000D03*
%TO.P,SW1,4*%
%TO.N,/slice_template/I2C_CLK{slash}A5*%
X16810000Y48125000D03*
%TO.P,SW1,5*%
%TO.N,/slice_template/I2C_CLK*%
X8200000Y48125000D03*
%TO.P,SW1,6*%
%TO.N,/slice_template/I2C_DAT*%
X8200000Y45585000D03*
%TO.P,SW1,7*%
%TO.N,/slice_template/SYNC*%
X8200000Y43045000D03*
%TO.P,SW1,8*%
%TO.N,/slice_template/INT*%
X8200000Y40505000D03*
%TD*%
D14*
%TO.P,J11,1,Pin_1*%
%TO.N,GND*%
X49150000Y12310000D03*
D15*
%TO.P,J11,2,Pin_2*%
X49150000Y14850000D03*
%TO.P,J11,3,Pin_3*%
X49150000Y17390000D03*
%TO.P,J11,4,Pin_4*%
X49150000Y19930000D03*
%TO.P,J11,5,Pin_5*%
X49150000Y22470000D03*
%TO.P,J11,6,Pin_6*%
X49150000Y25010000D03*
%TO.P,J11,7,Pin_7*%
X49150000Y27550000D03*
%TO.P,J11,8,Pin_8*%
X49150000Y30090000D03*
%TD*%
D14*
%TO.P,J9,1,Pin_1*%
%TO.N,GNDPWR*%
X23830000Y55470000D03*
D15*
%TO.P,J9,2,Pin_2*%
X26370000Y55470000D03*
%TO.P,J9,3,Pin_3*%
X28910000Y55470000D03*
%TO.P,J9,4,Pin_4*%
X31450000Y55470000D03*
%TO.P,J9,5,Pin_5*%
X33990000Y55470000D03*
%TO.P,J9,6,Pin_6*%
X36530000Y55470000D03*
%TD*%
D14*
%TO.P,J5,1,Pin_1*%
%TO.N,/slice_template/A0*%
X42070000Y12310000D03*
D15*
%TO.P,J5,2,Pin_2*%
%TO.N,/slice_template/A1*%
X42070000Y14850000D03*
%TO.P,J5,3,Pin_3*%
%TO.N,/slice_template/A2*%
X42070000Y17390000D03*
%TO.P,J5,4,Pin_4*%
%TO.N,/slice_template/A3*%
X42070000Y19930000D03*
%TO.P,J5,5,Pin_5*%
%TO.N,/slice_template/I2C_DAT{slash}A4*%
X42070000Y22470000D03*
%TO.P,J5,6,Pin_6*%
%TO.N,/slice_template/I2C_CLK{slash}A5*%
X42070000Y25010000D03*
%TO.P,J5,7,Pin_7*%
%TO.N,/slice_template/A6*%
X42070000Y27550000D03*
%TO.P,J5,8,Pin_8*%
%TO.N,/slice_template/A7*%
X42070000Y30090000D03*
%TD*%
D17*
%TO.P,,2*%
%TO.N,GND*%
X14900000Y53525000D03*
%TD*%
D19*
%TO.N,*%
X65720000Y44780000D03*
%TO.N,GND*%
X50480000Y87960000D03*
%TO.N,*%
X25080000Y75260000D03*
X58100000Y95580000D03*
X58100000Y70180000D03*
X37780000Y70180000D03*
X68260000Y14300000D03*
X45400000Y90500000D03*
X68260000Y47320000D03*
X60640000Y37160000D03*
X9860000Y75280000D03*
X68260000Y39700000D03*
X7320000Y75280000D03*
X37780000Y65100000D03*
X32700000Y85420000D03*
X53020000Y42240000D03*
X65720000Y42240000D03*
X60640000Y44780000D03*
X47940000Y67640000D03*
X37780000Y98120000D03*
X68260000Y49860000D03*
%TO.N,GND*%
X22540000Y65100000D03*
%TO.N,*%
X20000000Y82880000D03*
%TO.N,GND*%
X22540000Y87960000D03*
%TO.N,*%
X35240000Y65100000D03*
X45400000Y77800000D03*
X58100000Y75260000D03*
X45400000Y72720000D03*
X12380000Y90500000D03*
X47940000Y98120000D03*
X68260000Y85420000D03*
X42860000Y85420000D03*
X65720000Y47320000D03*
X63180000Y75260000D03*
X68260000Y27000000D03*
X60640000Y49860000D03*
X17460000Y77800000D03*
%TO.N,GND*%
X22540000Y90500000D03*
%TO.N,*%
X58100000Y65100000D03*
X55570000Y37170000D03*
X30160000Y98120000D03*
X47940000Y77800000D03*
X40320000Y98120000D03*
X20000000Y95580000D03*
X63180000Y85420000D03*
X60640000Y21920000D03*
X9860000Y82900000D03*
X25080000Y72720000D03*
X32700000Y80340000D03*
X63180000Y19380000D03*
X68260000Y32080000D03*
X32700000Y77800000D03*
X32700000Y98120000D03*
X17460000Y87960000D03*
%TO.N,GND*%
X50480000Y90500000D03*
%TO.N,*%
X65720000Y85420000D03*
X63180000Y77800000D03*
X32700000Y95580000D03*
X27620000Y67640000D03*
X58100000Y60020000D03*
X30160000Y82880000D03*
X65720000Y75260000D03*
X4780000Y77820000D03*
X55570000Y32090000D03*
X55560000Y85420000D03*
X27620000Y72720000D03*
X53020000Y29540000D03*
X60640000Y14300000D03*
X32700000Y82880000D03*
X63180000Y87960000D03*
X35240000Y87960000D03*
X63180000Y57480000D03*
X20000000Y80340000D03*
X58100000Y34620000D03*
X63180000Y11760000D03*
%TO.N,GND*%
X50480000Y65100000D03*
%TO.N,*%
X65720000Y60020000D03*
X32700000Y70180000D03*
X55560000Y11760000D03*
X68260000Y52400000D03*
X65720000Y70180000D03*
X30160000Y70180000D03*
X20000000Y93040000D03*
%TO.N,GND*%
X50480000Y72720000D03*
%TO.N,*%
X47940000Y70180000D03*
X25080000Y67640000D03*
X53020000Y98120000D03*
X27620000Y93040000D03*
X55560000Y14300000D03*
X30160000Y77800000D03*
X45400000Y98120000D03*
X68260000Y70180000D03*
X63180000Y62560000D03*
X20000000Y77800000D03*
X47940000Y80340000D03*
X58100000Y11760000D03*
X65720000Y19380000D03*
X47940000Y95580000D03*
X65720000Y54940000D03*
X40320000Y67640000D03*
X45400000Y75260000D03*
X58100000Y87960000D03*
X65720000Y27000000D03*
X55560000Y27000000D03*
X68260000Y87960000D03*
X42860000Y65100000D03*
X63180000Y80340000D03*
X40320000Y70180000D03*
X58100000Y93040000D03*
X27620000Y82880000D03*
X7320000Y85440000D03*
X14920000Y82880000D03*
X60640000Y39700000D03*
X58100000Y98120000D03*
X25080000Y70180000D03*
X58100000Y16840000D03*
X42860000Y90500000D03*
X68260000Y37160000D03*
X68260000Y67640000D03*
X55560000Y44780000D03*
X58100000Y49860000D03*
X4780000Y82900000D03*
X60640000Y29540000D03*
X55560000Y75260000D03*
X47940000Y90500000D03*
X42860000Y95580000D03*
X68260000Y72720000D03*
X30160000Y67640000D03*
X40320000Y80340000D03*
X65720000Y72720000D03*
X68260000Y11760000D03*
X53020000Y87960000D03*
X60640000Y72720000D03*
X40320000Y93040000D03*
X68260000Y80340000D03*
X20000000Y85420000D03*
X37780000Y82880000D03*
X32700000Y87960000D03*
X47940000Y82880000D03*
X63180000Y52400000D03*
X65720000Y16840000D03*
X55560000Y62560000D03*
X42860000Y98120000D03*
X32700000Y67640000D03*
X12380000Y67640000D03*
X17460000Y98120000D03*
X14920000Y90500000D03*
X60640000Y32080000D03*
X12380000Y75260000D03*
X45400000Y70180000D03*
X55560000Y19380000D03*
X63180000Y54940000D03*
X55560000Y52400000D03*
X68260000Y16840000D03*
X45400000Y65100000D03*
X53020000Y93040000D03*
X53020000Y21920000D03*
X17460000Y90500000D03*
X32700000Y65100000D03*
X58100000Y77800000D03*
X53030000Y34630000D03*
%TO.N,GND*%
X50480000Y75260000D03*
%TO.N,*%
X9860000Y87980000D03*
%TO.N,GND*%
X50480000Y93040000D03*
%TO.N,*%
X40320000Y95580000D03*
X60640000Y24460000D03*
X35240000Y72720000D03*
X30160000Y87960000D03*
X63180000Y39700000D03*
X25080000Y90500000D03*
X63180000Y27000000D03*
X40320000Y77800000D03*
%TO.N,GND*%
X50480000Y70180000D03*
%TO.N,*%
X55560000Y67640000D03*
X60640000Y85420000D03*
X42860000Y72720000D03*
X42860000Y67640000D03*
X55560000Y16840000D03*
X53020000Y47320000D03*
X47940000Y93040000D03*
X42860000Y75260000D03*
X60640000Y70180000D03*
X45400000Y85420000D03*
X17460000Y93040000D03*
X63180000Y24460000D03*
X68260000Y42240000D03*
X63180000Y65100000D03*
X37780000Y95580000D03*
X58100000Y62560000D03*
X63180000Y67640000D03*
X37780000Y72720000D03*
X7320000Y87980000D03*
X63180000Y70180000D03*
X25080000Y80340000D03*
X12380000Y85420000D03*
X45400000Y82880000D03*
X55560000Y65100000D03*
X65720000Y24460000D03*
X68260000Y44780000D03*
X53020000Y16840000D03*
X53020000Y57480000D03*
X53020000Y19380000D03*
X68260000Y75260000D03*
X35240000Y75260000D03*
X40320000Y82880000D03*
X40320000Y72720000D03*
X17460000Y80340000D03*
X60640000Y87960000D03*
X63180000Y16840000D03*
X63180000Y14300000D03*
X14920000Y75260000D03*
X14920000Y95580000D03*
X65720000Y82880000D03*
X58100000Y85420000D03*
X12380000Y98120000D03*
X58100000Y19380000D03*
%TO.N,GND*%
X22540000Y85420000D03*
%TO.N,*%
X60640000Y11760000D03*
%TO.N,GND*%
X50480000Y82880000D03*
%TO.N,*%
X58100000Y29540000D03*
X9860000Y85440000D03*
X45400000Y95580000D03*
X25080000Y82880000D03*
X4780000Y75280000D03*
X37780000Y93040000D03*
X20000000Y67640000D03*
X40320000Y65100000D03*
X25080000Y95580000D03*
X53020000Y75260000D03*
X30160000Y72720000D03*
X42860000Y70180000D03*
X35240000Y85420000D03*
X14920000Y85420000D03*
X35240000Y82880000D03*
X58100000Y44780000D03*
X63180000Y60020000D03*
X53020000Y52400000D03*
X32700000Y93040000D03*
X30160000Y75260000D03*
X35240000Y98120000D03*
X40320000Y75260000D03*
%TO.N,GND*%
X22540000Y77800000D03*
%TO.N,*%
X65720000Y57480000D03*
X12380000Y77800000D03*
X35240000Y77800000D03*
X58100000Y82880000D03*
X65720000Y52400000D03*
X35240000Y95580000D03*
X68260000Y60020000D03*
X58100000Y72720000D03*
X47940000Y87960000D03*
%TO.N,GND*%
X22540000Y67640000D03*
%TO.N,*%
X47940000Y75260000D03*
X12380000Y80340000D03*
X53030000Y32090000D03*
%TO.N,GND*%
X22540000Y82880000D03*
%TO.N,*%
X65720000Y49860000D03*
X47940000Y72720000D03*
X27620000Y98120000D03*
X53020000Y49860000D03*
X68260000Y62560000D03*
%TO.N,GND*%
X22540000Y80340000D03*
%TO.N,*%
X27620000Y87960000D03*
X20000000Y75260000D03*
X60640000Y54940000D03*
%TO.N,GND*%
X50480000Y85420000D03*
%TO.N,*%
X12380000Y82880000D03*
X65720000Y65100000D03*
X55560000Y49860000D03*
X53020000Y70180000D03*
X20000000Y98120000D03*
X55560000Y70180000D03*
X53020000Y44780000D03*
X53020000Y24460000D03*
X53020000Y72720000D03*
X37780000Y90500000D03*
X65720000Y80340000D03*
X42860000Y82880000D03*
X14920000Y80340000D03*
X27620000Y80340000D03*
X53020000Y60020000D03*
X27620000Y70180000D03*
X47940000Y85420000D03*
X68260000Y24460000D03*
X55560000Y77800000D03*
X55570000Y34630000D03*
X65720000Y67640000D03*
X55560000Y39700000D03*
X58100000Y42240000D03*
X65720000Y39700000D03*
X45400000Y80340000D03*
X63180000Y82880000D03*
X30160000Y80340000D03*
X53020000Y67640000D03*
X60640000Y16840000D03*
%TO.N,GND*%
X50480000Y67640000D03*
%TO.N,*%
X17460000Y95580000D03*
X65720000Y87960000D03*
X35240000Y70180000D03*
X63180000Y49860000D03*
X58100000Y47320000D03*
X27620000Y75260000D03*
X55560000Y87960000D03*
X12380000Y95580000D03*
X12380000Y72720000D03*
X63180000Y72720000D03*
X68260000Y54940000D03*
X25080000Y93040000D03*
X53020000Y54940000D03*
X58100000Y39700000D03*
X40320000Y85420000D03*
X58100000Y54940000D03*
X53020000Y39700000D03*
X4780000Y87980000D03*
%TO.N,GND*%
X50480000Y80340000D03*
%TO.N,*%
X20000000Y90500000D03*
%TO.N,GND*%
X50480000Y77800000D03*
%TO.N,*%
X60640000Y19380000D03*
X53020000Y62560000D03*
X60640000Y77800000D03*
X55560000Y21920000D03*
X53020000Y65100000D03*
X55560000Y60020000D03*
X60640000Y65100000D03*
X63180000Y32080000D03*
X45400000Y93040000D03*
X30160000Y65100000D03*
X17460000Y85420000D03*
X27620000Y65100000D03*
X9860000Y80360000D03*
X45400000Y87960000D03*
X55560000Y80340000D03*
X58100000Y80340000D03*
X55560000Y90500000D03*
%TO.N,GND*%
X22540000Y70180000D03*
X22540000Y95580000D03*
%TO.N,*%
X65720000Y21920000D03*
X60640000Y60020000D03*
X60640000Y82880000D03*
X53030000Y37170000D03*
X63180000Y29540000D03*
X68260000Y82880000D03*
X58100000Y67640000D03*
X42860000Y80340000D03*
%TO.N,GND*%
X22540000Y75260000D03*
%TO.N,*%
X14920000Y70180000D03*
X65720000Y37160000D03*
X60640000Y27000000D03*
X53020000Y82880000D03*
X7320000Y82900000D03*
X35240000Y93040000D03*
X7320000Y77820000D03*
X68260000Y19380000D03*
X14920000Y67640000D03*
X42860000Y77800000D03*
X58100000Y32080000D03*
X60640000Y34620000D03*
X63180000Y37160000D03*
X12380000Y93040000D03*
X53020000Y27000000D03*
X60640000Y80340000D03*
X25080000Y87960000D03*
X53020000Y14300000D03*
X4780000Y85440000D03*
X14920000Y72720000D03*
X53020000Y80340000D03*
X32700000Y90500000D03*
X47940000Y65100000D03*
X14920000Y93040000D03*
X12380000Y87960000D03*
X65720000Y29540000D03*
X58100000Y90500000D03*
X4780000Y80360000D03*
X68260000Y65100000D03*
X40320000Y87960000D03*
X65720000Y14300000D03*
X63180000Y21920000D03*
X37780000Y85420000D03*
X65720000Y32080000D03*
X27620000Y90500000D03*
X55560000Y42240000D03*
X55560000Y72720000D03*
X58100000Y14300000D03*
X55560000Y24460000D03*
X37780000Y75260000D03*
X63180000Y42240000D03*
X55560000Y29540000D03*
X63180000Y44780000D03*
X68260000Y34620000D03*
X17460000Y82880000D03*
X35240000Y90500000D03*
X60640000Y75260000D03*
%TO.N,GND*%
X22540000Y98120000D03*
%TO.N,*%
X32700000Y72720000D03*
X53020000Y11760000D03*
X45400000Y67640000D03*
X14920000Y77800000D03*
X55560000Y93040000D03*
X63180000Y34620000D03*
X37780000Y87960000D03*
X63180000Y47320000D03*
%TO.N,GND*%
X50480000Y95580000D03*
%TO.N,*%
X25080000Y77800000D03*
X58100000Y37160000D03*
X60640000Y47320000D03*
X27620000Y77800000D03*
X42860000Y87960000D03*
X9860000Y72740000D03*
X20000000Y87960000D03*
X58100000Y52400000D03*
X30160000Y95580000D03*
X60640000Y42240000D03*
X17460000Y70180000D03*
X25080000Y65100000D03*
X42860000Y93040000D03*
X27620000Y95580000D03*
X37780000Y67640000D03*
X68260000Y21920000D03*
X37780000Y77800000D03*
X53020000Y77800000D03*
X30160000Y93040000D03*
X58100000Y57480000D03*
X35240000Y80340000D03*
X58100000Y24460000D03*
X53020000Y95580000D03*
X55560000Y47320000D03*
X17460000Y72720000D03*
X55560000Y82880000D03*
X30160000Y85420000D03*
X55560000Y54940000D03*
X65720000Y77800000D03*
X65720000Y62560000D03*
X14920000Y98120000D03*
X58100000Y21920000D03*
X35240000Y67640000D03*
X20000000Y72720000D03*
X60640000Y57480000D03*
X65720000Y34620000D03*
X58100000Y27000000D03*
X60640000Y52400000D03*
%TO.N,GND*%
X22540000Y72720000D03*
%TO.N,*%
X9860000Y77820000D03*
X7320000Y80360000D03*
X25080000Y98120000D03*
%TO.N,GND*%
X22540000Y93040000D03*
X50480000Y98120000D03*
%TO.N,*%
X60640000Y62560000D03*
X37780000Y80340000D03*
X68260000Y77800000D03*
X30160000Y90500000D03*
X17460000Y67640000D03*
X25080000Y85420000D03*
X27620000Y85420000D03*
X55560000Y95580000D03*
X40320000Y90500000D03*
X65720000Y11760000D03*
X17460000Y75260000D03*
X32700000Y75260000D03*
X55560000Y57480000D03*
X53020000Y90500000D03*
X68260000Y29540000D03*
X55560000Y98120000D03*
X53020000Y85420000D03*
X12380000Y70180000D03*
X60640000Y67640000D03*
X14920000Y87960000D03*
X20000000Y70180000D03*
X68260000Y57480000D03*
D20*
%TO.N,GND*%
X11250000Y18925000D03*
X11250000Y15050000D03*
X14275000Y23375000D03*
X3750000Y13345000D03*
X8250000Y22500000D03*
D21*
X6100000Y22600000D03*
D20*
X14275000Y13200000D03*
X8575000Y21125000D03*
X10575000Y21900000D03*
X14325000Y17880000D03*
X11300000Y13150000D03*
X53000000Y3900000D03*
X14900000Y51325000D03*
X14275000Y15475000D03*
X3750000Y18900000D03*
X14275000Y20475000D03*
X8550000Y18800000D03*
X8600000Y15100000D03*
X5875000Y14900000D03*
D21*
%TO.N,+5V*%
X12650000Y10600000D03*
D20*
%TO.N,/slice_template/ESTOP*%
X15850000Y36350000D03*
%TD*%
D22*
%TO.N,GND*%
X49160000Y55440000D02*
X49160000Y37660000D01*
X49150000Y33870000D02*
X49150000Y30090000D01*
X49160000Y33880000D02*
X49150000Y33870000D01*
D23*
X53000000Y3900000D02*
X53000000Y2544231D01*
D22*
X49150000Y30090000D02*
X49150000Y12310000D01*
X14900000Y53525000D02*
X14900000Y51325000D01*
X49160000Y37660000D02*
X49160000Y33880000D01*
D24*
%TO.N,+12V*%
X3600000Y58910000D02*
X7540000Y58910000D01*
X17220000Y62170000D02*
X19560000Y59830000D01*
X23540000Y51930000D02*
X23830000Y51930000D01*
X7540000Y58910000D02*
X7550000Y58900000D01*
X7550000Y58900000D02*
X10820000Y62170000D01*
X19560000Y55910000D02*
X23540000Y51930000D01*
X23830000Y51930000D02*
X36530000Y51930000D01*
X19560000Y59830000D02*
X19560000Y55910000D01*
X10820000Y62170000D02*
X17220000Y62170000D01*
%TO.N,+5V*%
X45650000Y6000000D02*
X45650000Y30200000D01*
X12650000Y6550000D02*
X17250000Y1950000D01*
X12650000Y10600000D02*
X12650000Y6550000D01*
D23*
X47932769Y5667231D02*
X47923000Y5667231D01*
D22*
X42700000Y34740000D02*
X41110000Y34740000D01*
D24*
X41600000Y1950000D02*
X45650000Y6000000D01*
X41110000Y34740000D02*
X35250000Y34740000D01*
D22*
X45620000Y37660000D02*
X45620000Y55440000D01*
D24*
X35230000Y34740000D02*
X35250000Y34740000D01*
D23*
X45982769Y5667231D02*
X47923000Y5667231D01*
D24*
X17250000Y1950000D02*
X41600000Y1950000D01*
D22*
X45620000Y37660000D02*
X42700000Y34740000D01*
D24*
X45650000Y30200000D02*
X41110000Y34740000D01*
D23*
X45650000Y6000000D02*
X45982769Y5667231D01*
D24*
%TO.N,GNDPWR*%
X18990000Y64780000D02*
X22540000Y61230000D01*
X23830000Y55470000D02*
X36530000Y55470000D01*
X3600000Y61450000D02*
X6930000Y64780000D01*
X22540000Y61230000D02*
X22540000Y56760000D01*
X6930000Y64780000D02*
X18990000Y64780000D01*
X22540000Y56760000D02*
X23830000Y55470000D01*
D23*
%TO.N,/slice_template/LED*%
X2625000Y24275000D02*
X3200000Y24850000D01*
X19740000Y24850000D02*
X20010000Y24580000D01*
X54400000Y4344231D02*
X54400000Y1450000D01*
X3200000Y24850000D02*
X19740000Y24850000D01*
X8700000Y11400000D02*
X3600000Y11400000D01*
X53700000Y750000D02*
X16752944Y750000D01*
X53077000Y5667231D02*
X54400000Y4344231D01*
X2625000Y12375000D02*
X2625000Y24275000D01*
X20010000Y24580000D02*
X20090000Y24580000D01*
X11450000Y8650000D02*
X8700000Y11400000D01*
X16752944Y750000D02*
X11450000Y6052944D01*
X11450000Y6052944D02*
X11450000Y8650000D01*
X54400000Y1450000D02*
X53700000Y750000D01*
X3600000Y11400000D02*
X2625000Y12375000D01*
D22*
%TO.N,/slice_template/VIN*%
X14900000Y58925000D02*
X14900000Y57270000D01*
X10350000Y58900000D02*
X14875000Y58900000D01*
X35285000Y42325000D02*
X35250000Y42360000D01*
X14900000Y57270000D02*
X29810000Y42360000D01*
X29810000Y42360000D02*
X35250000Y42360000D01*
X14875000Y58900000D02*
X14900000Y58925000D01*
D23*
%TO.N,/slice_template/I2C_DAT{slash}A4*%
X22730000Y43753636D02*
X20883636Y45600000D01*
X22730000Y37100000D02*
X22730000Y43753636D01*
X20883636Y45600000D02*
X16825000Y45600000D01*
X16825000Y45600000D02*
X16810000Y45585000D01*
X35250000Y24580000D02*
X22730000Y37100000D01*
%TO.N,/slice_template/I2C_CLK{slash}A5*%
X23450000Y37500000D02*
X23450000Y41485000D01*
X23431000Y41504000D02*
X23431000Y44044000D01*
X23450000Y41485000D02*
X23431000Y41504000D01*
X23431000Y44044000D02*
X19350000Y48125000D01*
X35250000Y27120000D02*
X33830000Y27120000D01*
X33830000Y27120000D02*
X23450000Y37500000D01*
X19350000Y48125000D02*
X16810000Y48125000D01*
%TO.N,/slice_template/SYNC{slash}CAN_{INT}*%
X20010000Y29800000D02*
X20010000Y29660000D01*
X16810000Y43045000D02*
X18481000Y41374000D01*
X18481000Y31189000D02*
X20010000Y29660000D01*
X18481000Y41374000D02*
X18481000Y31189000D01*
%TO.N,/slice_template/INT{slash}CAN_{CS}*%
X20010000Y27840000D02*
X20010000Y27120000D01*
X16810000Y40505000D02*
X16810000Y30320000D01*
X16810000Y30320000D02*
X20010000Y27120000D01*
%TO.N,/slice_template/ESTOP*%
X6950000Y44300000D02*
X5875000Y45375000D01*
X5875000Y46475000D02*
X3600000Y48750000D01*
X9475000Y44300000D02*
X6950000Y44300000D01*
X5875000Y45375000D02*
X5875000Y46475000D01*
X19550000Y32200000D02*
X20010000Y32200000D01*
X10250000Y41950000D02*
X10250000Y43525000D01*
X3600000Y48750000D02*
X3600000Y48150000D01*
X10250000Y43525000D02*
X9475000Y44300000D01*
X15850000Y36350000D02*
X10250000Y41950000D01*
%TO.N,/slice_template/I2C_CLK*%
X8100000Y52000000D02*
X3730000Y56370000D01*
X8100000Y48125000D02*
X8100000Y52000000D01*
X3730000Y56370000D02*
X3600000Y56370000D01*
%TO.N,/slice_template/INT*%
X3600000Y43670000D02*
X4180000Y43670000D01*
X6765000Y40505000D02*
X8200000Y40505000D01*
X3600000Y43670000D02*
X6765000Y40505000D01*
%TO.N,/slice_template/I2C_DAT*%
X6449000Y47336000D02*
X6449000Y50981000D01*
X8120000Y45665000D02*
X6449000Y47336000D01*
X6449000Y50981000D02*
X3600000Y53830000D01*
%TO.N,/slice_template/SYNC*%
X6064892Y43045000D02*
X3600000Y45509892D01*
X3600000Y45509892D02*
X3600000Y46210000D01*
X8200000Y43045000D02*
X6064892Y43045000D01*
%TD*%
M02*
