M48
; DRILL file {KiCad 9.0.1} date 2026-01-25T22:44:53-0500
; FORMAT={-:-/ absolute / inch / decimal}
; #@! TF.CreationDate,2026-01-25T22:44:53-05:00
; #@! TF.GenerationSoftware,Kicad,Pcbnew,9.0.1
; #@! TF.FileFunction,Plated,1,2,PTH
FMAT,2
INCH
; #@! TA.AperFunction,Plated,PTH,ViaDrill
T1C0.0157
; #@! TA.AperFunction,Plated,PTH,ViaDrill
T2C0.0315
; #@! TA.AperFunction,Plated,PTH,ViaDrill
T3C0.0394
; #@! TA.AperFunction,Plated,PTH,ComponentDrill
T4C0.0394
%
G90
G05
T1
X0.1476Y0.7441
X0.1476Y0.5254
X0.2313Y0.5866
X0.3248Y0.8858
X0.3366Y0.7402
X0.3376Y0.8317
X0.3386Y0.5945
X0.4163Y0.8622
X0.4429Y0.7451
X0.4429Y0.5925
X0.4449Y0.5177
X0.562Y0.9203
X0.562Y0.8061
X0.562Y0.6093
X0.562Y0.5197
X0.564Y0.7039
X0.5866Y2.0207
X0.624Y1.4311
X2.0866Y0.1535
T2
X0.2402Y0.8898
X0.498Y0.4173
T3
X0.1882Y3.4638
X0.1882Y3.3638
X0.1882Y3.2638
X0.1882Y3.1638
X0.1882Y3.0638
X0.1882Y2.9638
X0.2882Y3.4638
X0.2882Y3.3638
X0.2882Y3.2638
X0.2882Y3.1638
X0.2882Y3.0638
X0.2882Y2.9638
X0.3882Y3.4638
X0.3882Y3.3638
X0.3882Y3.2638
X0.3882Y3.1638
X0.3882Y3.0638
X0.3882Y2.9638
X0.3882Y2.8638
X0.4874Y3.863
X0.4874Y3.763
X0.4874Y3.663
X0.4874Y3.563
X0.4874Y3.463
X0.4874Y3.363
X0.4874Y3.263
X0.4874Y3.163
X0.4874Y3.063
X0.4874Y2.963
X0.4874Y2.863
X0.4874Y2.763
X0.4874Y2.663
X0.5874Y3.863
X0.5874Y3.763
X0.5874Y3.663
X0.5874Y3.563
X0.5874Y3.463
X0.5874Y3.363
X0.5874Y3.263
X0.5874Y3.163
X0.5874Y3.063
X0.5874Y2.963
X0.5874Y2.863
X0.5874Y2.763
X0.5874Y2.663
X0.6874Y3.863
X0.6874Y3.763
X0.6874Y3.663
X0.6874Y3.563
X0.6874Y3.463
X0.6874Y3.363
X0.6874Y3.263
X0.6874Y3.163
X0.6874Y3.063
X0.6874Y2.963
X0.6874Y2.863
X0.6874Y2.763
X0.6874Y2.663
X0.7874Y3.863
X0.7874Y3.763
X0.7874Y3.663
X0.7874Y3.563
X0.7874Y3.463
X0.7874Y3.363
X0.7874Y3.263
X0.7874Y3.163
X0.7874Y3.063
X0.7874Y2.963
X0.7874Y2.863
X0.7874Y2.763
X0.7874Y2.663
X0.8874Y3.863
X0.8874Y3.763
X0.8874Y3.663
X0.8874Y3.563
X0.8874Y3.463
X0.8874Y3.363
X0.8874Y3.263
X0.8874Y3.163
X0.8874Y3.063
X0.8874Y2.963
X0.8874Y2.863
X0.8874Y2.763
X0.8874Y2.663
X0.8874Y2.563
X0.9874Y3.863
X0.9874Y3.763
X0.9874Y3.663
X0.9874Y3.563
X0.9874Y3.463
X0.9874Y3.363
X0.9874Y3.263
X0.9874Y3.163
X0.9874Y3.063
X0.9874Y2.963
X0.9874Y2.863
X0.9874Y2.763
X0.9874Y2.663
X0.9874Y2.563
X1.0874Y3.863
X1.0874Y3.763
X1.0874Y3.663
X1.0874Y3.563
X1.0874Y3.463
X1.0874Y3.363
X1.0874Y3.263
X1.0874Y3.163
X1.0874Y3.063
X1.0874Y2.963
X1.0874Y2.863
X1.0874Y2.763
X1.0874Y2.663
X1.0874Y2.563
X1.1874Y3.863
X1.1874Y3.763
X1.1874Y3.663
X1.1874Y3.563
X1.1874Y3.463
X1.1874Y3.363
X1.1874Y3.263
X1.1874Y3.163
X1.1874Y3.063
X1.1874Y2.963
X1.1874Y2.863
X1.1874Y2.763
X1.1874Y2.663
X1.1874Y2.563
X1.2874Y3.863
X1.2874Y3.763
X1.2874Y3.663
X1.2874Y3.563
X1.2874Y3.463
X1.2874Y3.363
X1.2874Y3.263
X1.2874Y3.163
X1.2874Y3.063
X1.2874Y2.963
X1.2874Y2.863
X1.2874Y2.763
X1.2874Y2.663
X1.2874Y2.563
X1.3874Y3.863
X1.3874Y3.763
X1.3874Y3.663
X1.3874Y3.563
X1.3874Y3.463
X1.3874Y3.363
X1.3874Y3.263
X1.3874Y3.163
X1.3874Y3.063
X1.3874Y2.963
X1.3874Y2.863
X1.3874Y2.763
X1.3874Y2.663
X1.3874Y2.563
X1.4874Y3.863
X1.4874Y3.763
X1.4874Y3.663
X1.4874Y3.563
X1.4874Y3.463
X1.4874Y3.363
X1.4874Y3.263
X1.4874Y3.163
X1.4874Y3.063
X1.4874Y2.963
X1.4874Y2.863
X1.4874Y2.763
X1.4874Y2.663
X1.4874Y2.563
X1.5874Y3.863
X1.5874Y3.763
X1.5874Y3.663
X1.5874Y3.563
X1.5874Y3.463
X1.5874Y3.363
X1.5874Y3.263
X1.5874Y3.163
X1.5874Y3.063
X1.5874Y2.963
X1.5874Y2.863
X1.5874Y2.763
X1.5874Y2.663
X1.5874Y2.563
X1.6874Y3.863
X1.6874Y3.763
X1.6874Y3.663
X1.6874Y3.563
X1.6874Y3.463
X1.6874Y3.363
X1.6874Y3.263
X1.6874Y3.163
X1.6874Y3.063
X1.6874Y2.963
X1.6874Y2.863
X1.6874Y2.763
X1.6874Y2.663
X1.6874Y2.563
X1.7874Y3.863
X1.7874Y3.763
X1.7874Y3.663
X1.7874Y3.563
X1.7874Y3.463
X1.7874Y3.363
X1.7874Y3.263
X1.7874Y3.163
X1.7874Y3.063
X1.7874Y2.963
X1.7874Y2.863
X1.7874Y2.763
X1.7874Y2.663
X1.7874Y2.563
X1.8874Y3.863
X1.8874Y3.763
X1.8874Y3.663
X1.8874Y3.563
X1.8874Y3.463
X1.8874Y3.363
X1.8874Y3.263
X1.8874Y3.163
X1.8874Y3.063
X1.8874Y2.963
X1.8874Y2.863
X1.8874Y2.763
X1.8874Y2.663
X1.8874Y2.563
X1.9874Y3.863
X1.9874Y3.763
X1.9874Y3.663
X1.9874Y3.563
X1.9874Y3.463
X1.9874Y3.363
X1.9874Y3.263
X1.9874Y3.163
X1.9874Y3.063
X1.9874Y2.963
X1.9874Y2.863
X1.9874Y2.763
X1.9874Y2.663
X1.9874Y2.563
X2.0874Y3.863
X2.0874Y3.763
X2.0874Y3.663
X2.0874Y3.563
X2.0874Y3.463
X2.0874Y3.363
X2.0874Y3.263
X2.0874Y3.163
X2.0874Y3.063
X2.0874Y2.963
X2.0874Y2.863
X2.0874Y2.763
X2.0874Y2.663
X2.0874Y2.563
X2.0874Y2.463
X2.0874Y2.363
X2.0874Y2.263
X2.0874Y2.163
X2.0874Y2.063
X2.0874Y1.963
X2.0874Y1.863
X2.0874Y1.763
X2.0874Y1.663
X2.0874Y1.563
X2.0874Y1.163
X2.0874Y1.063
X2.0874Y0.963
X2.0874Y0.863
X2.0874Y0.763
X2.0874Y0.663
X2.0874Y0.563
X2.0874Y0.463
X2.0878Y1.4634
X2.0878Y1.3634
X2.0878Y1.2634
X2.1874Y3.863
X2.1874Y3.763
X2.1874Y3.663
X2.1874Y3.563
X2.1874Y3.463
X2.1874Y3.363
X2.1874Y3.263
X2.1874Y3.163
X2.1874Y3.063
X2.1874Y2.963
X2.1874Y2.863
X2.1874Y2.763
X2.1874Y2.663
X2.1874Y2.563
X2.1874Y2.463
X2.1874Y2.363
X2.1874Y2.263
X2.1874Y2.163
X2.1874Y2.063
X2.1874Y1.963
X2.1874Y1.863
X2.1874Y1.763
X2.1874Y1.663
X2.1874Y1.563
X2.1874Y1.163
X2.1874Y1.063
X2.1874Y0.963
X2.1874Y0.863
X2.1874Y0.763
X2.1874Y0.663
X2.1874Y0.563
X2.1874Y0.463
X2.1878Y1.4634
X2.1878Y1.3634
X2.1878Y1.2634
X2.2874Y3.863
X2.2874Y3.763
X2.2874Y3.663
X2.2874Y3.563
X2.2874Y3.463
X2.2874Y3.363
X2.2874Y3.263
X2.2874Y3.163
X2.2874Y3.063
X2.2874Y2.963
X2.2874Y2.863
X2.2874Y2.763
X2.2874Y2.663
X2.2874Y2.563
X2.2874Y2.463
X2.2874Y2.363
X2.2874Y2.263
X2.2874Y2.163
X2.2874Y2.063
X2.2874Y1.963
X2.2874Y1.863
X2.2874Y1.763
X2.2874Y1.663
X2.2874Y1.563
X2.2874Y1.463
X2.2874Y1.363
X2.2874Y1.263
X2.2874Y1.163
X2.2874Y1.063
X2.2874Y0.963
X2.2874Y0.863
X2.2874Y0.763
X2.2874Y0.663
X2.2874Y0.563
X2.2874Y0.463
X2.3874Y3.463
X2.3874Y3.363
X2.3874Y3.263
X2.3874Y3.163
X2.3874Y3.063
X2.3874Y2.963
X2.3874Y2.863
X2.3874Y2.763
X2.3874Y2.663
X2.3874Y2.563
X2.3874Y2.463
X2.3874Y2.363
X2.3874Y2.263
X2.3874Y2.163
X2.3874Y2.063
X2.3874Y1.963
X2.3874Y1.863
X2.3874Y1.763
X2.3874Y1.663
X2.3874Y1.563
X2.3874Y1.463
X2.3874Y1.363
X2.3874Y1.263
X2.3874Y1.163
X2.3874Y1.063
X2.3874Y0.963
X2.3874Y0.863
X2.3874Y0.763
X2.3874Y0.663
X2.3874Y0.563
X2.3874Y0.463
X2.4874Y3.463
X2.4874Y3.363
X2.4874Y3.263
X2.4874Y3.163
X2.4874Y3.063
X2.4874Y2.963
X2.4874Y2.863
X2.4874Y2.763
X2.4874Y2.663
X2.4874Y2.563
X2.4874Y2.463
X2.4874Y2.363
X2.4874Y2.263
X2.4874Y2.163
X2.4874Y2.063
X2.4874Y1.963
X2.4874Y1.863
X2.4874Y1.763
X2.4874Y1.663
X2.4874Y1.563
X2.4874Y1.463
X2.4874Y1.363
X2.4874Y1.263
X2.4874Y1.163
X2.4874Y1.063
X2.4874Y0.963
X2.4874Y0.863
X2.4874Y0.763
X2.4874Y0.663
X2.4874Y0.563
X2.4874Y0.463
X2.5874Y3.463
X2.5874Y3.363
X2.5874Y3.263
X2.5874Y3.163
X2.5874Y3.063
X2.5874Y2.963
X2.5874Y2.863
X2.5874Y2.763
X2.5874Y2.663
X2.5874Y2.563
X2.5874Y2.463
X2.5874Y2.363
X2.5874Y2.263
X2.5874Y2.163
X2.5874Y2.063
X2.5874Y1.963
X2.5874Y1.863
X2.5874Y1.763
X2.5874Y1.663
X2.5874Y1.563
X2.5874Y1.463
X2.5874Y1.363
X2.5874Y1.263
X2.5874Y1.163
X2.5874Y1.063
X2.5874Y0.963
X2.5874Y0.863
X2.5874Y0.763
X2.5874Y0.663
X2.5874Y0.563
X2.5874Y0.463
X2.6874Y3.463
X2.6874Y3.363
X2.6874Y3.263
X2.6874Y3.163
X2.6874Y3.063
X2.6874Y2.963
X2.6874Y2.863
X2.6874Y2.763
X2.6874Y2.663
X2.6874Y2.563
X2.6874Y2.463
X2.6874Y2.363
X2.6874Y2.263
X2.6874Y2.163
X2.6874Y2.063
X2.6874Y1.963
X2.6874Y1.863
X2.6874Y1.763
X2.6874Y1.663
X2.6874Y1.563
X2.6874Y1.463
X2.6874Y1.363
X2.6874Y1.263
X2.6874Y1.163
X2.6874Y1.063
X2.6874Y0.963
X2.6874Y0.863
X2.6874Y0.763
X2.6874Y0.663
X2.6874Y0.563
X2.6874Y0.463
T4
X0.1417Y2.4193
X0.1417Y2.3193
X0.1417Y2.2193
X0.1417Y2.1193
X0.1417Y2.0193
X0.1417Y1.9193
X0.1417Y1.8193
X0.1417Y1.7193
X0.1417Y1.6193
X0.1417Y1.5193
X0.7878Y1.6677
X0.7878Y1.5677
X0.7878Y1.4677
X0.7878Y1.3677
X0.7878Y1.2677
X0.7878Y1.1677
X0.7878Y1.0677
X0.7878Y0.9677
X0.7878Y0.8677
X0.7878Y0.7677
X0.7878Y0.6677
X0.7878Y0.5677
X0.7878Y0.4677
X0.7878Y0.3677
X0.7878Y0.2677
X0.9382Y2.1839
X0.9382Y2.0445
X1.0382Y2.1839
X1.0382Y2.0445
X1.1382Y2.1839
X1.1382Y2.0445
X1.2382Y2.1839
X1.2382Y2.0445
X1.3382Y2.1839
X1.3382Y2.0445
X1.3878Y1.6677
X1.3878Y1.5677
X1.3878Y1.4677
X1.3878Y1.3677
X1.3878Y1.2677
X1.3878Y1.1677
X1.3878Y1.0677
X1.3878Y0.9677
X1.3878Y0.8677
X1.3878Y0.7677
X1.3878Y0.6677
X1.3878Y0.5677
X1.3878Y0.4677
X1.3878Y0.3677
X1.3878Y0.2677
X1.4382Y2.1839
X1.4382Y2.0445
X1.6563Y1.1846
X1.6563Y1.0846
X1.6563Y0.9846
X1.6563Y0.8846
X1.6563Y0.7846
X1.6563Y0.6846
X1.6563Y0.5846
X1.6563Y0.4846
X1.6563Y0.3445
X1.6563Y0.2445
X1.6567Y2.1827
X1.6567Y2.0827
X1.6567Y1.9827
X1.6567Y1.8827
X1.6567Y1.7827
X1.6567Y1.6827
X1.6567Y1.5827
X1.6567Y1.4827
X1.7957Y1.1846
X1.7957Y1.0846
X1.7957Y0.9846
X1.7957Y0.8846
X1.7957Y0.7846
X1.7957Y0.6846
X1.7957Y0.5846
X1.7957Y0.4846
X1.7961Y2.1827
X1.7961Y2.0827
X1.7961Y1.9827
X1.7961Y1.8827
X1.7961Y1.7827
X1.7961Y1.6827
X1.7961Y1.5827
X1.7961Y1.4827
X1.837Y1.3346
X1.935Y1.1846
X1.935Y1.0846
X1.935Y0.9846
X1.935Y0.8846
X1.935Y0.7846
X1.935Y0.6846
X1.935Y0.5846
X1.935Y0.4846
X1.9354Y2.1827
X1.9354Y2.0827
X1.9354Y1.9827
X1.9354Y1.8827
X1.9354Y1.7827
X1.9354Y1.6827
X1.9354Y1.5827
X1.9354Y1.4827
X1.9354Y0.3429
X1.937Y1.3346
X2.0354Y0.3429
M30
