%TF.GenerationSoftware,KiCad,Pcbnew,9.0.1*%
%TF.CreationDate,2026-01-25T22:44:52-05:00*%
%TF.ProjectId,BREAD_Slice,42524541-445f-4536-9c69-63652e6b6963,rev?*%
%TF.SameCoordinates,PX74eba40PY8552dc0*%
%TF.FileFunction,Soldermask,Top*%
%TF.FilePolarity,Negative*%
%FSLAX46Y46*%
G04 Gerber Fmt 4.6, Leading zero omitted, Abs format (unit mm)*
G04 Created by KiCad (PCBNEW 9.0.1) date 2026-01-25 22:44:52*
%MOMM*%
%LPD*%
G01*
G04 APERTURE LIST*
G04 Aperture macros list*
%AMRoundRect*
0 Rectangle with rounded corners*
0 $1 Rounding radius*
0 $2 $3 $4 $5 $6 $7 $8 $9 X,Y pos of 4 corners*
0 Add a 4 corners polygon primitive as box body*
4,1,4,$2,$3,$4,$5,$6,$7,$8,$9,$2,$3,0*
0 Add four circle primitives for the rounded corners*
1,1,$1+$1,$2,$3*
1,1,$1+$1,$4,$5*
1,1,$1+$1,$6,$7*
1,1,$1+$1,$8,$9*
0 Add four rect primitives between the rounded corners*
20,1,$1+$1,$2,$3,$4,$5,0*
20,1,$1+$1,$4,$5,$6,$7,0*
20,1,$1+$1,$6,$7,$8,$9,0*
20,1,$1+$1,$8,$9,$2,$3,0*%
G04 Aperture macros list end*
%ADD10RoundRect,0.101600X-0.825500X-0.500000X0.825500X-0.500000X0.825500X0.500000X-0.825500X0.500000X0*%
%ADD11RoundRect,1.008333X-5.041667X-5.041667X5.041667X-5.041667X5.041667X5.041667X-5.041667X5.041667X0*%
%ADD12RoundRect,0.050000X-0.800000X-0.800000X0.800000X-0.800000X0.800000X0.800000X-0.800000X0.800000X0*%
%ADD13O,1.700000X1.700000*%
%ADD14RoundRect,0.050000X-0.850000X-0.850000X0.850000X-0.850000X0.850000X0.850000X-0.850000X0.850000X0*%
%ADD15C,1.800000*%
%ADD16C,5.100000*%
%ADD17RoundRect,0.272727X0.327273X0.327273X-0.327273X0.327273X-0.327273X-0.327273X0.327273X-0.327273X0*%
%ADD18RoundRect,0.265625X-0.584375X1.534375X-0.584375X-1.534375X0.584375X-1.534375X0.584375X1.534375X0*%
%ADD19RoundRect,0.050000X0.850000X-0.850000X0.850000X0.850000X-0.850000X0.850000X-0.850000X-0.850000X0*%
%ADD20RoundRect,0.050000X-0.850000X0.850000X-0.850000X-0.850000X0.850000X-0.850000X0.850000X0.850000X0*%
%ADD21RoundRect,0.050000X0.850000X0.850000X-0.850000X0.850000X-0.850000X-0.850000X0.850000X-0.850000X0*%
%ADD22RoundRect,0.272321X0.997679X0.337679X-0.997679X0.337679X-0.997679X-0.337679X0.997679X-0.337679X0*%
%ADD23C,1.850000*%
G04 APERTURE END LIST*
D10*
%TO.C,D2*%
X47923000Y5667231D03*
X47923000Y2467231D03*
X53077000Y2467231D03*
X53077000Y5667231D03*
%TD*%
D11*
%TO.C,HS1*%
X9200000Y18350000D03*
%TD*%
D12*
%TO.C,A1*%
X20010000Y42360000D03*
D13*
X20010000Y39820000D03*
X20010000Y37280000D03*
X20010000Y34740000D03*
X20010000Y32200000D03*
X20010000Y29660000D03*
X20010000Y27120000D03*
X20010000Y24580000D03*
X20010000Y22040000D03*
X20010000Y19500000D03*
X20010000Y16960000D03*
X20010000Y14420000D03*
X20010000Y11880000D03*
X20010000Y9340000D03*
X20010000Y6800000D03*
X35250000Y6800000D03*
X35250000Y9340000D03*
X35250000Y11880000D03*
X35250000Y14420000D03*
X35250000Y16960000D03*
X35250000Y19500000D03*
X35250000Y22040000D03*
X35250000Y24580000D03*
X35250000Y27120000D03*
X35250000Y29660000D03*
X35250000Y32200000D03*
X35250000Y34740000D03*
X35250000Y37280000D03*
X35250000Y39820000D03*
X35250000Y42360000D03*
%TD*%
D14*
%TO.C,J7*%
X45620000Y55440000D03*
D15*
X45620000Y52900000D03*
X45620000Y50360000D03*
X45620000Y47820000D03*
X45620000Y45280000D03*
X45620000Y42740000D03*
X45620000Y40200000D03*
X45620000Y37660000D03*
%TD*%
D16*
%TO.C,H2*%
X5000000Y5000000D03*
%TD*%
D17*
%TO.C,D1*%
X10350000Y58900000D03*
X7550000Y58900000D03*
%TD*%
D18*
%TO.C,C5*%
X14900000Y58925000D03*
X14900000Y53525000D03*
%TD*%
D14*
%TO.C,J1*%
X42070000Y8750000D03*
D15*
X42070000Y6210000D03*
%TD*%
D16*
%TO.C,H4*%
X65000000Y5000000D03*
%TD*%
D19*
%TO.C,J6*%
X23830000Y51930000D03*
D15*
X26370000Y51930000D03*
X28910000Y51930000D03*
X31450000Y51930000D03*
X33990000Y51930000D03*
X36530000Y51930000D03*
%TD*%
D16*
%TO.C,H1*%
X5000000Y95000000D03*
%TD*%
D19*
%TO.C,J2*%
X46660000Y33900000D03*
D15*
X49200000Y33900000D03*
%TD*%
D14*
%TO.C,J4*%
X42080000Y55440000D03*
D15*
X42080000Y52900000D03*
X42080000Y50360000D03*
X42080000Y47820000D03*
X42080000Y45280000D03*
X42080000Y42740000D03*
X42080000Y40200000D03*
X42080000Y37660000D03*
%TD*%
D14*
%TO.C,J10*%
X49160000Y55440000D03*
D15*
X49160000Y52900000D03*
X49160000Y50360000D03*
X49160000Y47820000D03*
X49160000Y45280000D03*
X49160000Y42740000D03*
X49160000Y40200000D03*
X49160000Y37660000D03*
%TD*%
D20*
%TO.C,J3*%
X51700000Y8710000D03*
D15*
X49160000Y8710000D03*
%TD*%
D14*
%TO.C,J12*%
X3600000Y61450000D03*
D15*
X3600000Y58910000D03*
X3600000Y56370000D03*
X3600000Y53830000D03*
X3600000Y51290000D03*
X3600000Y48750000D03*
X3600000Y46210000D03*
X3600000Y43670000D03*
X3600000Y41130000D03*
X3600000Y38590000D03*
%TD*%
D21*
%TO.C,J8*%
X45610000Y12310000D03*
D15*
X45610000Y14850000D03*
X45610000Y17390000D03*
X45610000Y19930000D03*
X45610000Y22470000D03*
X45610000Y25010000D03*
X45610000Y27550000D03*
X45610000Y30090000D03*
%TD*%
D22*
%TO.C,SW1*%
X16810000Y40505000D03*
X16810000Y43045000D03*
X16810000Y45585000D03*
X16810000Y48125000D03*
X8200000Y48125000D03*
X8200000Y45585000D03*
X8200000Y43045000D03*
X8200000Y40505000D03*
%TD*%
D16*
%TO.C,H3*%
X65000000Y95000000D03*
%TD*%
D21*
%TO.C,J11*%
X49150000Y12310000D03*
D15*
X49150000Y14850000D03*
X49150000Y17390000D03*
X49150000Y19930000D03*
X49150000Y22470000D03*
X49150000Y25010000D03*
X49150000Y27550000D03*
X49150000Y30090000D03*
%TD*%
D19*
%TO.C,J9*%
X23830000Y55470000D03*
D15*
X26370000Y55470000D03*
X28910000Y55470000D03*
X31450000Y55470000D03*
X33990000Y55470000D03*
X36530000Y55470000D03*
%TD*%
D21*
%TO.C,J5*%
X42070000Y12310000D03*
D15*
X42070000Y14850000D03*
X42070000Y17390000D03*
X42070000Y19930000D03*
X42070000Y22470000D03*
X42070000Y25010000D03*
X42070000Y27550000D03*
X42070000Y30090000D03*
%TD*%
D18*
%TO.C,*%
X14900000Y53525000D03*
%TD*%
D23*
X65720000Y44780000D03*
X50480000Y87960000D03*
X25080000Y75260000D03*
X58100000Y95580000D03*
X58100000Y70180000D03*
X37780000Y70180000D03*
X68260000Y14300000D03*
X45400000Y90500000D03*
X68260000Y47320000D03*
X60640000Y37160000D03*
X9860000Y75280000D03*
X68260000Y39700000D03*
X7320000Y75280000D03*
X37780000Y65100000D03*
X32700000Y85420000D03*
X53020000Y42240000D03*
X65720000Y42240000D03*
X60640000Y44780000D03*
X47940000Y67640000D03*
X37780000Y98120000D03*
X68260000Y49860000D03*
X22540000Y65100000D03*
X20000000Y82880000D03*
X22540000Y87960000D03*
X35240000Y65100000D03*
X45400000Y77800000D03*
X58100000Y75260000D03*
X45400000Y72720000D03*
X12380000Y90500000D03*
X47940000Y98120000D03*
X68260000Y85420000D03*
X42860000Y85420000D03*
X65720000Y47320000D03*
X63180000Y75260000D03*
X68260000Y27000000D03*
X60640000Y49860000D03*
X17460000Y77800000D03*
X22540000Y90500000D03*
X58100000Y65100000D03*
X55570000Y37170000D03*
X30160000Y98120000D03*
X47940000Y77800000D03*
X40320000Y98120000D03*
X20000000Y95580000D03*
X63180000Y85420000D03*
X60640000Y21920000D03*
X9860000Y82900000D03*
X25080000Y72720000D03*
X32700000Y80340000D03*
X63180000Y19380000D03*
X68260000Y32080000D03*
X32700000Y77800000D03*
X32700000Y98120000D03*
X17460000Y87960000D03*
X50480000Y90500000D03*
X65720000Y85420000D03*
X63180000Y77800000D03*
X32700000Y95580000D03*
X27620000Y67640000D03*
X58100000Y60020000D03*
X30160000Y82880000D03*
X65720000Y75260000D03*
X4780000Y77820000D03*
X55570000Y32090000D03*
X55560000Y85420000D03*
X27620000Y72720000D03*
X53020000Y29540000D03*
X60640000Y14300000D03*
X32700000Y82880000D03*
X63180000Y87960000D03*
X35240000Y87960000D03*
X63180000Y57480000D03*
X20000000Y80340000D03*
X58100000Y34620000D03*
X63180000Y11760000D03*
X50480000Y65100000D03*
X65720000Y60020000D03*
X32700000Y70180000D03*
X55560000Y11760000D03*
X68260000Y52400000D03*
X65720000Y70180000D03*
X30160000Y70180000D03*
X20000000Y93040000D03*
X50480000Y72720000D03*
X47940000Y70180000D03*
X25080000Y67640000D03*
X53020000Y98120000D03*
X27620000Y93040000D03*
X55560000Y14300000D03*
X30160000Y77800000D03*
X45400000Y98120000D03*
X68260000Y70180000D03*
X63180000Y62560000D03*
X20000000Y77800000D03*
X47940000Y80340000D03*
X58100000Y11760000D03*
X65720000Y19380000D03*
X47940000Y95580000D03*
X65720000Y54940000D03*
X40320000Y67640000D03*
X45400000Y75260000D03*
X58100000Y87960000D03*
X65720000Y27000000D03*
X55560000Y27000000D03*
X68260000Y87960000D03*
X42860000Y65100000D03*
X63180000Y80340000D03*
X40320000Y70180000D03*
X58100000Y93040000D03*
X27620000Y82880000D03*
X7320000Y85440000D03*
X14920000Y82880000D03*
X60640000Y39700000D03*
X58100000Y98120000D03*
X25080000Y70180000D03*
X58100000Y16840000D03*
X42860000Y90500000D03*
X68260000Y37160000D03*
X68260000Y67640000D03*
X55560000Y44780000D03*
X58100000Y49860000D03*
X4780000Y82900000D03*
X60640000Y29540000D03*
X55560000Y75260000D03*
X47940000Y90500000D03*
X42860000Y95580000D03*
X68260000Y72720000D03*
X30160000Y67640000D03*
X40320000Y80340000D03*
X65720000Y72720000D03*
X68260000Y11760000D03*
X53020000Y87960000D03*
X60640000Y72720000D03*
X40320000Y93040000D03*
X68260000Y80340000D03*
X20000000Y85420000D03*
X37780000Y82880000D03*
X32700000Y87960000D03*
X47940000Y82880000D03*
X63180000Y52400000D03*
X65720000Y16840000D03*
X55560000Y62560000D03*
X42860000Y98120000D03*
X32700000Y67640000D03*
X12380000Y67640000D03*
X17460000Y98120000D03*
X14920000Y90500000D03*
X60640000Y32080000D03*
X12380000Y75260000D03*
X45400000Y70180000D03*
X55560000Y19380000D03*
X63180000Y54940000D03*
X55560000Y52400000D03*
X68260000Y16840000D03*
X45400000Y65100000D03*
X53020000Y93040000D03*
X53020000Y21920000D03*
X17460000Y90500000D03*
X32700000Y65100000D03*
X58100000Y77800000D03*
X53030000Y34630000D03*
X50480000Y75260000D03*
X9860000Y87980000D03*
X50480000Y93040000D03*
X40320000Y95580000D03*
X60640000Y24460000D03*
X35240000Y72720000D03*
X30160000Y87960000D03*
X63180000Y39700000D03*
X25080000Y90500000D03*
X63180000Y27000000D03*
X40320000Y77800000D03*
X50480000Y70180000D03*
X55560000Y67640000D03*
X60640000Y85420000D03*
X42860000Y72720000D03*
X42860000Y67640000D03*
X55560000Y16840000D03*
X53020000Y47320000D03*
X47940000Y93040000D03*
X42860000Y75260000D03*
X60640000Y70180000D03*
X45400000Y85420000D03*
X17460000Y93040000D03*
X63180000Y24460000D03*
X68260000Y42240000D03*
X63180000Y65100000D03*
X37780000Y95580000D03*
X58100000Y62560000D03*
X63180000Y67640000D03*
X37780000Y72720000D03*
X7320000Y87980000D03*
X63180000Y70180000D03*
X25080000Y80340000D03*
X12380000Y85420000D03*
X45400000Y82880000D03*
X55560000Y65100000D03*
X65720000Y24460000D03*
X68260000Y44780000D03*
X53020000Y16840000D03*
X53020000Y57480000D03*
X53020000Y19380000D03*
X68260000Y75260000D03*
X35240000Y75260000D03*
X40320000Y82880000D03*
X40320000Y72720000D03*
X17460000Y80340000D03*
X60640000Y87960000D03*
X63180000Y16840000D03*
X63180000Y14300000D03*
X14920000Y75260000D03*
X14920000Y95580000D03*
X65720000Y82880000D03*
X58100000Y85420000D03*
X12380000Y98120000D03*
X58100000Y19380000D03*
X22540000Y85420000D03*
X60640000Y11760000D03*
X50480000Y82880000D03*
X58100000Y29540000D03*
X9860000Y85440000D03*
X45400000Y95580000D03*
X25080000Y82880000D03*
X4780000Y75280000D03*
X37780000Y93040000D03*
X20000000Y67640000D03*
X40320000Y65100000D03*
X25080000Y95580000D03*
X53020000Y75260000D03*
X30160000Y72720000D03*
X42860000Y70180000D03*
X35240000Y85420000D03*
X14920000Y85420000D03*
X35240000Y82880000D03*
X58100000Y44780000D03*
X63180000Y60020000D03*
X53020000Y52400000D03*
X32700000Y93040000D03*
X30160000Y75260000D03*
X35240000Y98120000D03*
X40320000Y75260000D03*
X22540000Y77800000D03*
X65720000Y57480000D03*
X12380000Y77800000D03*
X35240000Y77800000D03*
X58100000Y82880000D03*
X65720000Y52400000D03*
X35240000Y95580000D03*
X68260000Y60020000D03*
X58100000Y72720000D03*
X47940000Y87960000D03*
X22540000Y67640000D03*
X47940000Y75260000D03*
X12380000Y80340000D03*
X53030000Y32090000D03*
X22540000Y82880000D03*
X65720000Y49860000D03*
X47940000Y72720000D03*
X27620000Y98120000D03*
X53020000Y49860000D03*
X68260000Y62560000D03*
X22540000Y80340000D03*
X27620000Y87960000D03*
X20000000Y75260000D03*
X60640000Y54940000D03*
X50480000Y85420000D03*
X12380000Y82880000D03*
X65720000Y65100000D03*
X55560000Y49860000D03*
X53020000Y70180000D03*
X20000000Y98120000D03*
X55560000Y70180000D03*
X53020000Y44780000D03*
X53020000Y24460000D03*
X53020000Y72720000D03*
X37780000Y90500000D03*
X65720000Y80340000D03*
X42860000Y82880000D03*
X14920000Y80340000D03*
X27620000Y80340000D03*
X53020000Y60020000D03*
X27620000Y70180000D03*
X47940000Y85420000D03*
X68260000Y24460000D03*
X55560000Y77800000D03*
X55570000Y34630000D03*
X65720000Y67640000D03*
X55560000Y39700000D03*
X58100000Y42240000D03*
X65720000Y39700000D03*
X45400000Y80340000D03*
X63180000Y82880000D03*
X30160000Y80340000D03*
X53020000Y67640000D03*
X60640000Y16840000D03*
X50480000Y67640000D03*
X17460000Y95580000D03*
X65720000Y87960000D03*
X35240000Y70180000D03*
X63180000Y49860000D03*
X58100000Y47320000D03*
X27620000Y75260000D03*
X55560000Y87960000D03*
X12380000Y95580000D03*
X12380000Y72720000D03*
X63180000Y72720000D03*
X68260000Y54940000D03*
X25080000Y93040000D03*
X53020000Y54940000D03*
X58100000Y39700000D03*
X40320000Y85420000D03*
X58100000Y54940000D03*
X53020000Y39700000D03*
X4780000Y87980000D03*
X50480000Y80340000D03*
X20000000Y90500000D03*
X50480000Y77800000D03*
X60640000Y19380000D03*
X53020000Y62560000D03*
X60640000Y77800000D03*
X55560000Y21920000D03*
X53020000Y65100000D03*
X55560000Y60020000D03*
X60640000Y65100000D03*
X63180000Y32080000D03*
X45400000Y93040000D03*
X30160000Y65100000D03*
X17460000Y85420000D03*
X27620000Y65100000D03*
X9860000Y80360000D03*
X45400000Y87960000D03*
X55560000Y80340000D03*
X58100000Y80340000D03*
X55560000Y90500000D03*
X22540000Y70180000D03*
X22540000Y95580000D03*
X65720000Y21920000D03*
X60640000Y60020000D03*
X60640000Y82880000D03*
X53030000Y37170000D03*
X63180000Y29540000D03*
X68260000Y82880000D03*
X58100000Y67640000D03*
X42860000Y80340000D03*
X22540000Y75260000D03*
X14920000Y70180000D03*
X65720000Y37160000D03*
X60640000Y27000000D03*
X53020000Y82880000D03*
X7320000Y82900000D03*
X35240000Y93040000D03*
X7320000Y77820000D03*
X68260000Y19380000D03*
X14920000Y67640000D03*
X42860000Y77800000D03*
X58100000Y32080000D03*
X60640000Y34620000D03*
X63180000Y37160000D03*
X12380000Y93040000D03*
X53020000Y27000000D03*
X60640000Y80340000D03*
X25080000Y87960000D03*
X53020000Y14300000D03*
X4780000Y85440000D03*
X14920000Y72720000D03*
X53020000Y80340000D03*
X32700000Y90500000D03*
X47940000Y65100000D03*
X14920000Y93040000D03*
X12380000Y87960000D03*
X65720000Y29540000D03*
X58100000Y90500000D03*
X4780000Y80360000D03*
X68260000Y65100000D03*
X40320000Y87960000D03*
X65720000Y14300000D03*
X63180000Y21920000D03*
X37780000Y85420000D03*
X65720000Y32080000D03*
X27620000Y90500000D03*
X55560000Y42240000D03*
X55560000Y72720000D03*
X58100000Y14300000D03*
X55560000Y24460000D03*
X37780000Y75260000D03*
X63180000Y42240000D03*
X55560000Y29540000D03*
X63180000Y44780000D03*
X68260000Y34620000D03*
X17460000Y82880000D03*
X35240000Y90500000D03*
X60640000Y75260000D03*
X22540000Y98120000D03*
X32700000Y72720000D03*
X53020000Y11760000D03*
X45400000Y67640000D03*
X14920000Y77800000D03*
X55560000Y93040000D03*
X63180000Y34620000D03*
X37780000Y87960000D03*
X63180000Y47320000D03*
X50480000Y95580000D03*
X25080000Y77800000D03*
X58100000Y37160000D03*
X60640000Y47320000D03*
X27620000Y77800000D03*
X42860000Y87960000D03*
X9860000Y72740000D03*
X20000000Y87960000D03*
X58100000Y52400000D03*
X30160000Y95580000D03*
X60640000Y42240000D03*
X17460000Y70180000D03*
X25080000Y65100000D03*
X42860000Y93040000D03*
X27620000Y95580000D03*
X37780000Y67640000D03*
X68260000Y21920000D03*
X37780000Y77800000D03*
X53020000Y77800000D03*
X30160000Y93040000D03*
X58100000Y57480000D03*
X35240000Y80340000D03*
X58100000Y24460000D03*
X53020000Y95580000D03*
X55560000Y47320000D03*
X17460000Y72720000D03*
X55560000Y82880000D03*
X30160000Y85420000D03*
X55560000Y54940000D03*
X65720000Y77800000D03*
X65720000Y62560000D03*
X14920000Y98120000D03*
X58100000Y21920000D03*
X35240000Y67640000D03*
X20000000Y72720000D03*
X60640000Y57480000D03*
X65720000Y34620000D03*
X58100000Y27000000D03*
X60640000Y52400000D03*
X22540000Y72720000D03*
X9860000Y77820000D03*
X7320000Y80360000D03*
X25080000Y98120000D03*
X22540000Y93040000D03*
X50480000Y98120000D03*
X60640000Y62560000D03*
X37780000Y80340000D03*
X68260000Y77800000D03*
X30160000Y90500000D03*
X17460000Y67640000D03*
X25080000Y85420000D03*
X27620000Y85420000D03*
X55560000Y95580000D03*
X40320000Y90500000D03*
X65720000Y11760000D03*
X17460000Y75260000D03*
X32700000Y75260000D03*
X55560000Y57480000D03*
X53020000Y90500000D03*
X68260000Y29540000D03*
X55560000Y98120000D03*
X53020000Y85420000D03*
X12380000Y70180000D03*
X60640000Y67640000D03*
X14920000Y87960000D03*
X20000000Y70180000D03*
X68260000Y57480000D03*
M02*
